<?xml version="1.0" encoding="UTF-8" standalone="no"?>
<!-- Created with Inkscape (http://www.inkscape.org/) -->

<svg
   width="210mm"
   height="297mm"
   viewBox="0 0 210 297"
   version="1.1"
   id="svg5"
   xml:space="preserve"
   inkscape:version="1.2 (dc2aeda, 2022-05-15)"
   sodipodi:docname="gas-cylinder2.svg"
   xmlns:inkscape="http://www.inkscape.org/namespaces/inkscape"
   xmlns:sodipodi="http://sodipodi.sourceforge.net/DTD/sodipodi-0.dtd"
   xmlns="http://www.w3.org/2000/svg"
   xmlns:svg="http://www.w3.org/2000/svg"><sodipodi:namedview
     id="namedview7"
     pagecolor="#ffffff"
     bordercolor="#000000"
     borderopacity="0.25"
     inkscape:showpageshadow="2"
     inkscape:pageopacity="0.0"
     inkscape:pagecheckerboard="0"
     inkscape:deskcolor="#d1d1d1"
     inkscape:document-units="mm"
     showgrid="false"
     inkscape:zoom="0.7865877"
     inkscape:cx="474.20014"
     inkscape:cy="316.5572"
     inkscape:window-width="1470"
     inkscape:window-height="920"
     inkscape:window-x="0"
     inkscape:window-y="36"
     inkscape:window-maximized="0"
     inkscape:current-layer="layer1" /><defs
     id="defs2" /><g
     inkscape:label="Layer 1"
     inkscape:groupmode="layer"
     id="layer1"><path
       style="fill:#000000;stroke-width:0.352778"
       d="m 96.587166,124.68844 c -4.84463,-0.7058 -8.58481,-2.34903 -9.53677,-4.1899 -0.3088,-0.59716 -0.53047,-1.95735 -0.52955,-3.24947 10e-4,-1.87114 -0.20775,-2.63542 -1.32291,-4.83577 l -1.3245,-2.61339 V 89.306354 68.812797 l 0.87862,-1.720415 c 1.15852,-2.26851 3.4906,-4.271898 6.06578,-5.210855 1.65833,-0.604657 2.0321,-0.876089 1.82367,-1.324353 -0.14419,-0.310102 -0.32454,-3.857544 -0.40079,-7.883206 -0.15684,-8.280462 -0.36124,-7.718589 2.83818,-7.801983 1.58444,-0.0413 1.89255,0.061 2.1855,0.725629 0.27865,0.632188 0.76286,0.825562 2.64726,1.057216 2.818654,0.346506 8.289254,0.331156 11.056784,-0.03103 1.71774,-0.224799 2.1001,-0.405647 2.37252,-1.122137 0.34891,-0.917732 1.08398,-1.044434 3.62411,-0.624682 l 1.34163,0.221701 -0.10951,7.623722 c -0.0602,4.193047 -0.18773,7.833985 -0.2833,8.090974 -0.11354,0.305287 0.45519,0.7064 1.64071,1.157161 2.34252,0.890673 4.66483,2.950838 5.77356,5.121838 l 0.87862,1.720416 v 20.493557 20.49356 l -1.30234,2.61339 c -1.15789,2.32354 -1.31443,2.96006 -1.41146,5.73915 -0.10671,3.05632 -0.13524,3.14757 -1.2842,4.10676 -1.33775,1.1168 -4.05219,1.96737 -7.85291,2.4607 -3.17729,0.41241 -14.864034,0.39171 -17.768704,-0.0315 z m 12.686274,-2.6062 c 0,-0.65849 -0.26861,-0.71224 -4.02721,-0.80585 -4.07584,-0.10151 -4.89194,0.10668 -4.49305,1.14617 0.18454,0.4809 0.82904,0.54946 4.36837,0.46469 3.88356,-0.093 4.15189,-0.14505 4.15189,-0.80501 z m -12.640694,-0.0273 c 0.34276,-0.8932 -0.56257,-1.41641 -3.83891,-2.2186 -3.47474,-0.85076 -4.3656,-0.92003 -4.70799,-0.36602 -0.45826,0.74148 0.84725,1.45546 4.12676,2.25689 4.10305,1.00269 4.15953,1.00688 4.42014,0.32773 z m 20.945374,-0.29527 c 3.55169,-0.83937 4.88516,-1.53063 4.41625,-2.28935 -0.3424,-0.55401 -1.23325,-0.48474 -4.708,0.36602 -3.27634,0.80219 -4.18166,1.3254 -3.83891,2.2186 0.26317,0.6858 -0.14367,0.71488 4.13066,-0.29527 z M 104.51094,57.826252 c 0,-0.324772 -0.46213,-0.478732 -1.43698,-0.478732 -1.17793,0 -1.41589,-0.111292 -1.31998,-0.617362 0.0822,-0.433705 0.51607,-0.650314 1.4585,-0.728134 1.02139,-0.08434 1.31487,-0.249007 1.22993,-0.690087 -0.0614,-0.318624 -0.50761,-0.6762 -0.99166,-0.794614 -0.85042,-0.208041 -0.97268,-0.681599 -0.52162,-2.020498 0.21869,-0.649158 4.19443,-0.589433 4.74274,0.07125 0.63766,0.768323 0.29943,1.723301 -0.69334,1.957663 -0.79158,0.186868 -0.88009,0.383166 -0.88009,1.951944 v 1.744183 l 3.48164,0.364027 c 2.47794,0.259084 3.52376,0.254259 3.62775,-0.01674 0.0804,-0.20942 0.10113,-2.276522 0.0461,-4.593559 l -0.1,-4.212797 -1.5875,0.176389 c -2.44111,0.271234 -10.93022,0.209064 -12.611814,-0.09236 l -1.49931,-0.268753 v 4.683274 4.683274 l 3.527784,-0.319817 c 2.57833,-0.233742 3.52778,-0.44866 3.52778,-0.798549 z"
       id="path191" /></g></svg>
